G04 EAGLE Gerber RS-274X export*
G75*
%MOMM*%
%FSLAX34Y34*%
%LPD*%
%INBottom Copper*%
%IPPOS*%
%AMOC8*
5,1,8,0,0,1.08239X$1,22.5*%
G01*
%ADD10C,1.879600*%
%ADD11P,2.034460X8X112.500000*%
%ADD12C,1.308000*%
%ADD13C,2.400000*%
%ADD14C,1.524000*%
%ADD15P,1.429621X8X202.500000*%
%ADD16P,1.429621X8X22.500000*%
%ADD17C,0.756400*%
%ADD18C,0.254000*%
%ADD19C,0.508000*%


D10*
X546100Y482600D03*
X571500Y482600D03*
X596900Y482600D03*
X622300Y482600D03*
X647700Y482600D03*
X673100Y482600D03*
X698500Y482600D03*
X520700Y482600D03*
X495300Y965200D03*
X520700Y965200D03*
X546100Y965200D03*
X571500Y965200D03*
X596900Y965200D03*
X622300Y965200D03*
X647700Y965200D03*
X469900Y965200D03*
X317500Y482600D03*
X342900Y482600D03*
X368300Y482600D03*
X393700Y482600D03*
X419100Y482600D03*
X444500Y482600D03*
X469900Y482600D03*
X292100Y482600D03*
X266700Y965200D03*
X292100Y965200D03*
X317500Y965200D03*
X342900Y965200D03*
X368300Y965200D03*
X393700Y965200D03*
X419100Y965200D03*
X241300Y965200D03*
X48260Y965200D03*
X73660Y965200D03*
X99060Y965200D03*
X124460Y965200D03*
X149860Y965200D03*
X175260Y965200D03*
X200660Y965200D03*
X22860Y965200D03*
D11*
X749300Y762000D03*
X723900Y762000D03*
X749300Y787400D03*
X723900Y787400D03*
X749300Y812800D03*
X723900Y812800D03*
X749300Y838200D03*
X723900Y838200D03*
X749300Y863600D03*
X723900Y863600D03*
X749300Y889000D03*
X723900Y889000D03*
X749300Y914400D03*
X723900Y914400D03*
X749300Y939800D03*
X723900Y939800D03*
X749300Y558800D03*
X723900Y558800D03*
X749300Y584200D03*
X723900Y584200D03*
X749300Y609600D03*
X723900Y609600D03*
X749300Y635000D03*
X723900Y635000D03*
X749300Y660400D03*
X723900Y660400D03*
X749300Y685800D03*
X723900Y685800D03*
X749300Y711200D03*
X723900Y711200D03*
X749300Y736600D03*
X723900Y736600D03*
D10*
X723900Y533400D03*
X749300Y533400D03*
X723900Y965200D03*
X749300Y965200D03*
X114300Y482600D03*
X139700Y482600D03*
X165100Y482600D03*
X190500Y482600D03*
X215900Y482600D03*
X241300Y482600D03*
D12*
X550260Y660400D02*
X563340Y660400D01*
X563340Y685800D02*
X550260Y685800D01*
X550260Y711200D02*
X563340Y711200D01*
X563340Y736600D02*
X550260Y736600D01*
X550260Y762000D02*
X563340Y762000D01*
X563340Y787400D02*
X550260Y787400D01*
X313340Y685800D02*
X300260Y685800D01*
X300260Y711200D02*
X313340Y711200D01*
X313340Y736600D02*
X300260Y736600D01*
X300260Y762000D02*
X313340Y762000D01*
D10*
X787400Y215900D03*
X787400Y139700D03*
X889000Y215900D03*
X889000Y139700D03*
X622300Y215900D03*
X622300Y139700D03*
X723900Y215900D03*
X723900Y139700D03*
X457200Y215900D03*
X457200Y139700D03*
X558800Y215900D03*
X558800Y139700D03*
X292100Y215900D03*
X292100Y139700D03*
X393700Y215900D03*
X393700Y139700D03*
X127000Y215900D03*
X127000Y139700D03*
X228600Y215900D03*
X228600Y139700D03*
D13*
X838200Y101600D03*
X787400Y101600D03*
X889000Y101600D03*
X673100Y101600D03*
X622300Y101600D03*
X723900Y101600D03*
X508000Y101600D03*
X457200Y101600D03*
X558800Y101600D03*
X342900Y101600D03*
X292100Y101600D03*
X393700Y101600D03*
X177800Y101600D03*
X127000Y101600D03*
X228600Y101600D03*
D14*
X172720Y368300D02*
X157480Y368300D01*
X157480Y342900D02*
X172720Y342900D01*
X172720Y317500D02*
X157480Y317500D01*
D10*
X622300Y901700D03*
X622300Y825500D03*
X647700Y901700D03*
X647700Y825500D03*
D13*
X950000Y784600D03*
X950000Y733800D03*
X950000Y835400D03*
X950000Y886200D03*
X950000Y549600D03*
X950000Y498800D03*
X950000Y600400D03*
X950000Y651200D03*
X50000Y166900D03*
X50000Y217700D03*
X950000Y430400D03*
X950000Y379600D03*
D15*
X279400Y381000D03*
X228600Y381000D03*
D16*
X228600Y317500D03*
X279400Y317500D03*
D13*
X50000Y459700D03*
X50000Y510500D03*
X50000Y408900D03*
X50000Y358100D03*
D14*
X322580Y419100D02*
X337820Y419100D01*
X337820Y393700D02*
X322580Y393700D01*
X353060Y419100D02*
X368300Y419100D01*
X368300Y393700D02*
X353060Y393700D01*
D13*
X50000Y816200D03*
X50000Y867000D03*
X50000Y765400D03*
X50000Y714600D03*
X50000Y663800D03*
X50000Y613000D03*
D14*
X538480Y419100D02*
X553720Y419100D01*
X553720Y393700D02*
X538480Y393700D01*
X568960Y419100D02*
X584200Y419100D01*
X584200Y393700D02*
X568960Y393700D01*
D17*
X482600Y596900D03*
D18*
X558800Y596900D01*
D17*
X558800Y596900D03*
X914400Y393700D03*
D19*
X889000Y393700D01*
X749300Y533400D01*
X306800Y685800D02*
X279400Y685800D01*
X48260Y916940D02*
X48260Y965200D01*
X48260Y916940D02*
X279400Y685800D01*
X950000Y784600D02*
X982980Y753381D01*
X982980Y281940D01*
X228600Y317500D02*
X228600Y342900D01*
X254000Y368300D02*
X254000Y406400D01*
X266700Y419100D01*
X330200Y419100D01*
X254000Y368300D02*
X228600Y342900D01*
X916940Y215900D02*
X982980Y281940D01*
X916940Y215900D02*
X889000Y215900D01*
X863600Y241300D01*
X812800Y241300D01*
X749300Y241300D01*
X647700Y241300D01*
X584200Y241300D01*
X482600Y241300D01*
X419100Y241300D01*
X317500Y241300D01*
X254000Y241300D01*
X228600Y215900D01*
X254000Y241300D02*
X228600Y266700D01*
X228600Y317500D01*
X317500Y241300D02*
X292100Y215900D01*
X393700Y215900D02*
X419100Y241300D01*
X457200Y215900D02*
X482600Y241300D01*
X558800Y215900D02*
X584200Y241300D01*
X622300Y215900D02*
X647700Y241300D01*
X723900Y215900D02*
X749300Y241300D01*
X787400Y215900D02*
X812800Y241300D01*
X152400Y241300D02*
X127000Y215900D01*
X152400Y241300D02*
X203200Y241300D01*
X228600Y215900D01*
X228600Y444500D02*
X241300Y457200D01*
X241300Y482600D01*
X228600Y444500D02*
X228600Y381000D01*
X241300Y457200D02*
X444500Y457200D01*
X482600Y419100D01*
X546100Y419100D01*
X576580Y419100D01*
D17*
X622300Y660400D03*
X914400Y495300D03*
D18*
X706658Y660400D02*
X622300Y660400D01*
X706658Y660400D02*
X718850Y648208D01*
X799592Y648208D01*
X838200Y609600D02*
X838200Y546100D01*
X889000Y495300D01*
X914400Y495300D01*
X838200Y609600D02*
X799592Y648208D01*
D17*
X622300Y685800D03*
X914400Y546100D03*
D18*
X706658Y685800D02*
X622300Y685800D01*
X706658Y685800D02*
X718850Y673608D01*
X812292Y673608D01*
X914400Y571500D02*
X914400Y546100D01*
X914400Y571500D02*
X812292Y673608D01*
D17*
X622300Y711200D03*
X914400Y596900D03*
D18*
X706658Y711200D02*
X622300Y711200D01*
X706658Y711200D02*
X718850Y699008D01*
X812292Y699008D01*
X914400Y596900D01*
D17*
X622300Y736600D03*
X914400Y647700D03*
D18*
X698500Y736600D02*
X622300Y736600D01*
X698500Y736600D02*
X711200Y723900D01*
X838200Y723900D01*
X914400Y647700D01*
D17*
X584200Y927100D03*
D18*
X784860Y927100D01*
X927100Y784860D01*
X927100Y444500D01*
X941200Y430400D02*
X950000Y430400D01*
X941200Y430400D02*
X927100Y444500D01*
D19*
X187200Y647700D02*
X50000Y510500D01*
X187200Y647700D02*
X330200Y647700D01*
X355600Y673100D01*
X355600Y863600D01*
X457200Y965200D01*
X469900Y965200D01*
X76200Y485900D02*
X50000Y459700D01*
X76200Y485900D02*
X76200Y520700D01*
X190500Y635000D01*
X330200Y635000D02*
X368300Y673100D01*
X368300Y863600D01*
X444500Y939800D01*
X469900Y939800D01*
X495300Y965200D01*
X330200Y635000D02*
X190500Y635000D01*
X76200Y435100D02*
X50000Y408900D01*
X76200Y476561D02*
X82804Y483165D01*
X82804Y514604D01*
X190500Y622300D02*
X355600Y622300D01*
X381000Y647700D01*
X381000Y850900D01*
X457200Y927100D01*
X495300Y927100D01*
X520700Y952500D01*
X520700Y965200D01*
X76200Y476561D02*
X76200Y435100D01*
X82804Y514604D02*
X190500Y622300D01*
X89408Y397508D02*
X50000Y358100D01*
X89408Y397508D02*
X89408Y508000D01*
X191008Y609600D01*
X355600Y609600D02*
X393700Y647700D01*
X393700Y838200D01*
X469900Y914400D01*
X495300Y914400D01*
X546100Y965200D01*
X355600Y609600D02*
X191008Y609600D01*
M02*
