G04 EAGLE Gerber RS-274X export*
G75*
%MOMM*%
%FSLAX34Y34*%
%LPD*%
%INTop Copper*%
%IPPOS*%
%AMOC8*
5,1,8,0,0,1.08239X$1,22.5*%
G01*
%ADD10C,1.879600*%
%ADD11P,2.034460X8X112.500000*%
%ADD12C,1.308000*%
%ADD13C,2.400000*%
%ADD14C,1.524000*%
%ADD15P,1.429621X8X202.500000*%
%ADD16P,1.429621X8X22.500000*%
%ADD17C,0.508000*%
%ADD18C,0.254000*%
%ADD19C,0.756400*%


D10*
X546100Y482600D03*
X571500Y482600D03*
X596900Y482600D03*
X622300Y482600D03*
X647700Y482600D03*
X673100Y482600D03*
X698500Y482600D03*
X520700Y482600D03*
X495300Y965200D03*
X520700Y965200D03*
X546100Y965200D03*
X571500Y965200D03*
X596900Y965200D03*
X622300Y965200D03*
X647700Y965200D03*
X469900Y965200D03*
X317500Y482600D03*
X342900Y482600D03*
X368300Y482600D03*
X393700Y482600D03*
X419100Y482600D03*
X444500Y482600D03*
X469900Y482600D03*
X292100Y482600D03*
X266700Y965200D03*
X292100Y965200D03*
X317500Y965200D03*
X342900Y965200D03*
X368300Y965200D03*
X393700Y965200D03*
X419100Y965200D03*
X241300Y965200D03*
X48260Y965200D03*
X73660Y965200D03*
X99060Y965200D03*
X124460Y965200D03*
X149860Y965200D03*
X175260Y965200D03*
X200660Y965200D03*
X22860Y965200D03*
D11*
X749300Y762000D03*
X723900Y762000D03*
X749300Y787400D03*
X723900Y787400D03*
X749300Y812800D03*
X723900Y812800D03*
X749300Y838200D03*
X723900Y838200D03*
X749300Y863600D03*
X723900Y863600D03*
X749300Y889000D03*
X723900Y889000D03*
X749300Y914400D03*
X723900Y914400D03*
X749300Y939800D03*
X723900Y939800D03*
X749300Y558800D03*
X723900Y558800D03*
X749300Y584200D03*
X723900Y584200D03*
X749300Y609600D03*
X723900Y609600D03*
X749300Y635000D03*
X723900Y635000D03*
X749300Y660400D03*
X723900Y660400D03*
X749300Y685800D03*
X723900Y685800D03*
X749300Y711200D03*
X723900Y711200D03*
X749300Y736600D03*
X723900Y736600D03*
D10*
X723900Y533400D03*
X749300Y533400D03*
X723900Y965200D03*
X749300Y965200D03*
X114300Y482600D03*
X139700Y482600D03*
X165100Y482600D03*
X190500Y482600D03*
X215900Y482600D03*
X241300Y482600D03*
D12*
X550260Y660400D02*
X563340Y660400D01*
X563340Y685800D02*
X550260Y685800D01*
X550260Y711200D02*
X563340Y711200D01*
X563340Y736600D02*
X550260Y736600D01*
X550260Y762000D02*
X563340Y762000D01*
X563340Y787400D02*
X550260Y787400D01*
X313340Y685800D02*
X300260Y685800D01*
X300260Y711200D02*
X313340Y711200D01*
X313340Y736600D02*
X300260Y736600D01*
X300260Y762000D02*
X313340Y762000D01*
D10*
X787400Y215900D03*
X787400Y139700D03*
X889000Y215900D03*
X889000Y139700D03*
X622300Y215900D03*
X622300Y139700D03*
X723900Y215900D03*
X723900Y139700D03*
X457200Y215900D03*
X457200Y139700D03*
X558800Y215900D03*
X558800Y139700D03*
X292100Y215900D03*
X292100Y139700D03*
X393700Y215900D03*
X393700Y139700D03*
X127000Y215900D03*
X127000Y139700D03*
X228600Y215900D03*
X228600Y139700D03*
D13*
X838200Y101600D03*
X787400Y101600D03*
X889000Y101600D03*
X673100Y101600D03*
X622300Y101600D03*
X723900Y101600D03*
X508000Y101600D03*
X457200Y101600D03*
X558800Y101600D03*
X342900Y101600D03*
X292100Y101600D03*
X393700Y101600D03*
X177800Y101600D03*
X127000Y101600D03*
X228600Y101600D03*
D14*
X172720Y368300D02*
X157480Y368300D01*
X157480Y342900D02*
X172720Y342900D01*
X172720Y317500D02*
X157480Y317500D01*
D10*
X622300Y901700D03*
X622300Y825500D03*
X647700Y901700D03*
X647700Y825500D03*
D13*
X950000Y784600D03*
X950000Y733800D03*
X950000Y835400D03*
X950000Y886200D03*
X950000Y549600D03*
X950000Y498800D03*
X950000Y600400D03*
X950000Y651200D03*
X50000Y166900D03*
X50000Y217700D03*
X950000Y430400D03*
X950000Y379600D03*
D15*
X279400Y381000D03*
X228600Y381000D03*
D16*
X228600Y317500D03*
X279400Y317500D03*
D13*
X50000Y459700D03*
X50000Y510500D03*
X50000Y408900D03*
X50000Y358100D03*
D14*
X322580Y419100D02*
X337820Y419100D01*
X337820Y393700D02*
X322580Y393700D01*
X353060Y419100D02*
X368300Y419100D01*
X368300Y393700D02*
X353060Y393700D01*
D13*
X50000Y816200D03*
X50000Y867000D03*
X50000Y765400D03*
X50000Y714600D03*
X50000Y663800D03*
X50000Y613000D03*
D14*
X538480Y419100D02*
X553720Y419100D01*
X553720Y393700D02*
X538480Y393700D01*
X568960Y419100D02*
X584200Y419100D01*
X584200Y393700D02*
X568960Y393700D01*
D17*
X622300Y901700D02*
X622300Y965200D01*
D18*
X622300Y901700D02*
X647700Y876300D01*
X910590Y876300D02*
X950000Y835400D01*
X910590Y876300D02*
X647700Y876300D01*
D17*
X647700Y901700D02*
X647700Y965200D01*
D18*
X647700Y901700D02*
X660400Y889000D01*
X706658Y889000D02*
X718850Y901192D01*
X706658Y889000D02*
X660400Y889000D01*
X718850Y901192D02*
X936498Y901192D01*
X950000Y886200D01*
D17*
X889000Y698500D02*
X749300Y838200D01*
X889000Y304800D02*
X905510Y288290D01*
X889000Y304800D02*
X889000Y698500D01*
X889000Y139700D02*
X889000Y101600D01*
X889000Y139700D02*
X905510Y156210D01*
X905510Y288290D01*
X876300Y685800D02*
X749300Y812800D01*
X787400Y139700D02*
X787400Y101600D01*
X787400Y139700D02*
X876300Y228600D01*
X876300Y685800D01*
X863600Y673100D02*
X749300Y787400D01*
X863600Y323850D02*
X769620Y229870D01*
X863600Y323850D02*
X863600Y673100D01*
X723900Y139700D02*
X723900Y101600D01*
X723900Y142240D02*
X769620Y187960D01*
X723900Y142240D02*
X723900Y139700D01*
X769620Y187960D02*
X769620Y229870D01*
X850900Y660400D02*
X749300Y762000D01*
X850900Y330200D02*
X762000Y241300D01*
X850900Y330200D02*
X850900Y660400D01*
X622300Y139700D02*
X622300Y101600D01*
X622300Y139700D02*
X723900Y241300D01*
X762000Y241300D01*
X838200Y647700D02*
X749300Y736600D01*
X838200Y334010D02*
X753745Y249555D01*
X838200Y334010D02*
X838200Y647700D01*
X558800Y139700D02*
X558800Y101600D01*
X558800Y139700D02*
X596900Y177800D01*
X617855Y249555D02*
X753745Y249555D01*
X617855Y249555D02*
X596900Y228600D01*
X596900Y177800D01*
X825500Y635000D02*
X749300Y711200D01*
X825500Y337820D02*
X748030Y260350D01*
X539750Y260350D01*
X520700Y241300D01*
X825500Y337820D02*
X825500Y635000D01*
X457200Y139700D02*
X457200Y101600D01*
X457200Y139700D02*
X520700Y203200D01*
X520700Y241300D01*
X812800Y622300D02*
X749300Y685800D01*
X744220Y270510D02*
X448310Y270510D01*
X431800Y254000D01*
X812800Y339090D02*
X812800Y622300D01*
X812800Y339090D02*
X744220Y270510D01*
X393700Y139700D02*
X393700Y101600D01*
X393700Y139700D02*
X431800Y177800D01*
X431800Y254000D01*
X800100Y609600D02*
X749300Y660400D01*
X800100Y609600D02*
X800100Y340360D01*
X742950Y283210D01*
X292100Y139700D02*
X292100Y101600D01*
X292100Y139700D02*
X342900Y190500D01*
X410210Y283210D02*
X742950Y283210D01*
X410210Y283210D02*
X342900Y215900D01*
X342900Y190500D01*
X749300Y635000D02*
X787400Y596900D01*
X787400Y342900D01*
X739140Y294640D01*
X350520Y294640D01*
X266700Y210820D01*
X228600Y139700D02*
X228600Y101600D01*
X228600Y139700D02*
X266700Y177800D01*
X266700Y210820D01*
X749300Y609600D02*
X778510Y580390D01*
X778510Y347980D02*
X736600Y306070D01*
X344170Y306070D01*
X152400Y139700D02*
X127000Y139700D01*
X778510Y347980D02*
X778510Y580390D01*
X127000Y139700D02*
X127000Y101600D01*
X152400Y139700D02*
X203200Y190500D01*
X203200Y215900D01*
X241300Y254000D01*
X292100Y254000D02*
X344170Y306070D01*
X292100Y254000D02*
X241300Y254000D01*
X254000Y914400D02*
X266700Y914400D01*
X317500Y965200D01*
X249800Y914400D02*
X50000Y714600D01*
X249800Y914400D02*
X254000Y914400D01*
X266700Y927100D02*
X292100Y952500D01*
X292100Y965200D01*
X249800Y927100D02*
X88100Y765400D01*
X50000Y765400D01*
X249800Y927100D02*
X266700Y927100D01*
D18*
X306800Y711200D02*
X368300Y711200D01*
X482600Y596900D01*
D19*
X482600Y596900D03*
X558800Y596900D03*
D18*
X736600Y596900D01*
X749300Y584200D01*
X355600Y736600D02*
X306800Y736600D01*
X546100Y546100D02*
X736600Y546100D01*
X749300Y558800D01*
X546100Y546100D02*
X355600Y736600D01*
D17*
X723900Y533400D02*
X749300Y533400D01*
X723900Y533400D02*
X533400Y533400D01*
X381000Y685800D02*
X306800Y685800D01*
X381000Y685800D02*
X533400Y533400D01*
X914400Y393700D02*
X935900Y393700D01*
X950000Y379600D01*
D19*
X914400Y393700D03*
D17*
X215900Y482600D02*
X190500Y482600D01*
X190500Y569500D02*
X306800Y685800D01*
X863600Y76200D02*
X897890Y76200D01*
X863600Y76200D02*
X838200Y101600D01*
X812800Y76200D01*
X698500Y76200D01*
X673100Y101600D01*
X647700Y76200D01*
X533400Y76200D01*
X508000Y101600D01*
X482600Y76200D01*
X368300Y76200D01*
X342900Y101600D01*
X317500Y76200D01*
X203200Y76200D02*
X177800Y101600D01*
X203200Y76200D02*
X317500Y76200D01*
X916980Y346580D02*
X950000Y379600D01*
X916980Y346580D02*
X916980Y95290D01*
X897890Y76200D01*
X950000Y379600D02*
X971550Y401150D01*
X971550Y712250D02*
X950000Y733800D01*
X971550Y712250D02*
X971550Y401150D01*
X177800Y101600D02*
X152400Y76200D01*
X63500Y76200D01*
X25400Y114300D01*
X25400Y193100D02*
X50000Y217700D01*
X25400Y193100D02*
X25400Y114300D01*
X165100Y342900D02*
X254000Y342900D01*
X279400Y317500D01*
X254000Y342900D02*
X279400Y368300D01*
X279400Y381000D01*
X292100Y381000D01*
X304800Y393700D01*
X330200Y393700D01*
X279400Y381000D02*
X215900Y444500D01*
X215900Y482600D01*
X190500Y482600D02*
X190500Y569500D01*
X330200Y393700D02*
X360680Y393700D01*
X66900Y613000D02*
X50000Y613000D01*
X66900Y613000D02*
X88900Y635000D01*
X125000Y635000D01*
X190500Y569500D01*
X25400Y791600D02*
X50000Y816200D01*
X25400Y637600D02*
X50000Y613000D01*
X25400Y637600D02*
X25400Y791600D01*
X360680Y393700D02*
X546100Y393700D01*
X576580Y393700D01*
D18*
X622300Y825500D02*
X647700Y825500D01*
X673100Y850900D01*
X885190Y850900D02*
X950000Y784600D01*
X885190Y850900D02*
X673100Y850900D01*
D17*
X558800Y825500D02*
X533400Y850900D01*
X395700Y850900D02*
X306800Y762000D01*
X558800Y825500D02*
X622300Y825500D01*
X533400Y850900D02*
X395700Y850900D01*
X228600Y317500D02*
X165100Y317500D01*
X330200Y419100D02*
X360680Y419100D01*
X208600Y663800D02*
X50000Y663800D01*
X208600Y663800D02*
X306800Y762000D01*
X101600Y218500D02*
X50000Y166900D01*
X101600Y218500D02*
X101600Y269240D01*
X101600Y317500D01*
X152400Y368300D01*
X165100Y368300D01*
X177800Y381000D01*
X228600Y381000D01*
X12700Y829700D02*
X50000Y867000D01*
X12700Y829700D02*
X12700Y358140D01*
X101600Y269240D01*
D19*
X622300Y660400D03*
D17*
X556800Y660400D01*
X917900Y498800D02*
X950000Y498800D01*
X917900Y498800D02*
X914400Y495300D01*
D19*
X914400Y495300D03*
X622300Y685800D03*
D17*
X556800Y685800D01*
X917900Y549600D02*
X950000Y549600D01*
X917900Y549600D02*
X914400Y546100D01*
D19*
X914400Y546100D03*
X622300Y711200D03*
D17*
X556800Y711200D01*
X917900Y600400D02*
X950000Y600400D01*
X917900Y600400D02*
X914400Y596900D01*
D19*
X914400Y596900D03*
X622300Y736600D03*
D18*
X556800Y736600D01*
D17*
X917900Y651200D02*
X950000Y651200D01*
X917900Y651200D02*
X914400Y647700D01*
D19*
X914400Y647700D03*
D17*
X406400Y927100D02*
X368300Y965200D01*
X406400Y927100D02*
X584200Y927100D01*
D19*
X584200Y927100D03*
M02*
