G04 EAGLE Gerber RS-274X export*
G75*
%MOMM*%
%FSLAX34Y34*%
%LPD*%
%IN*%
%IPPOS*%
%AMOC8*
5,1,8,0,0,1.08239X$1,22.5*%
G01*
%ADD10C,0.254000*%


D10*
X0Y0D02*
X1000000Y0D01*
X1000000Y1000000D01*
X0Y1000000D01*
X0Y0D01*
X975000Y39464D02*
X974924Y38396D01*
X974771Y37335D01*
X974543Y36288D01*
X974241Y35260D01*
X973867Y34256D01*
X973422Y33281D01*
X972908Y32341D01*
X972329Y31440D01*
X971687Y30582D01*
X970985Y29772D01*
X970228Y29015D01*
X969418Y28313D01*
X968560Y27671D01*
X967659Y27092D01*
X966719Y26578D01*
X965744Y26133D01*
X964740Y25759D01*
X963712Y25457D01*
X962665Y25229D01*
X961604Y25076D01*
X960536Y25000D01*
X959464Y25000D01*
X958396Y25076D01*
X957335Y25229D01*
X956288Y25457D01*
X955260Y25759D01*
X954256Y26133D01*
X953281Y26578D01*
X952341Y27092D01*
X951440Y27671D01*
X950582Y28313D01*
X949772Y29015D01*
X949015Y29772D01*
X948313Y30582D01*
X947671Y31440D01*
X947092Y32341D01*
X946578Y33281D01*
X946133Y34256D01*
X945759Y35260D01*
X945457Y36288D01*
X945229Y37335D01*
X945076Y38396D01*
X945000Y39464D01*
X945000Y40536D01*
X945076Y41604D01*
X945229Y42665D01*
X945457Y43712D01*
X945759Y44740D01*
X946133Y45744D01*
X946578Y46719D01*
X947092Y47659D01*
X947671Y48560D01*
X948313Y49418D01*
X949015Y50228D01*
X949772Y50985D01*
X950582Y51687D01*
X951440Y52329D01*
X952341Y52908D01*
X953281Y53422D01*
X954256Y53867D01*
X955260Y54241D01*
X956288Y54543D01*
X957335Y54771D01*
X958396Y54924D01*
X959464Y55000D01*
X960536Y55000D01*
X961604Y54924D01*
X962665Y54771D01*
X963712Y54543D01*
X964740Y54241D01*
X965744Y53867D01*
X966719Y53422D01*
X967659Y52908D01*
X968560Y52329D01*
X969418Y51687D01*
X970228Y50985D01*
X970985Y50228D01*
X971687Y49418D01*
X972329Y48560D01*
X972908Y47659D01*
X973422Y46719D01*
X973867Y45744D01*
X974241Y44740D01*
X974543Y43712D01*
X974771Y42665D01*
X974924Y41604D01*
X975000Y40536D01*
X975000Y39464D01*
X55000Y39464D02*
X54924Y38396D01*
X54771Y37335D01*
X54543Y36288D01*
X54241Y35260D01*
X53867Y34256D01*
X53422Y33281D01*
X52908Y32341D01*
X52329Y31440D01*
X51687Y30582D01*
X50985Y29772D01*
X50228Y29015D01*
X49418Y28313D01*
X48560Y27671D01*
X47659Y27092D01*
X46719Y26578D01*
X45744Y26133D01*
X44740Y25759D01*
X43712Y25457D01*
X42665Y25229D01*
X41604Y25076D01*
X40536Y25000D01*
X39464Y25000D01*
X38396Y25076D01*
X37335Y25229D01*
X36288Y25457D01*
X35260Y25759D01*
X34256Y26133D01*
X33281Y26578D01*
X32341Y27092D01*
X31440Y27671D01*
X30582Y28313D01*
X29772Y29015D01*
X29015Y29772D01*
X28313Y30582D01*
X27671Y31440D01*
X27092Y32341D01*
X26578Y33281D01*
X26133Y34256D01*
X25759Y35260D01*
X25457Y36288D01*
X25229Y37335D01*
X25076Y38396D01*
X25000Y39464D01*
X25000Y40536D01*
X25076Y41604D01*
X25229Y42665D01*
X25457Y43712D01*
X25759Y44740D01*
X26133Y45744D01*
X26578Y46719D01*
X27092Y47659D01*
X27671Y48560D01*
X28313Y49418D01*
X29015Y50228D01*
X29772Y50985D01*
X30582Y51687D01*
X31440Y52329D01*
X32341Y52908D01*
X33281Y53422D01*
X34256Y53867D01*
X35260Y54241D01*
X36288Y54543D01*
X37335Y54771D01*
X38396Y54924D01*
X39464Y55000D01*
X40536Y55000D01*
X41604Y54924D01*
X42665Y54771D01*
X43712Y54543D01*
X44740Y54241D01*
X45744Y53867D01*
X46719Y53422D01*
X47659Y52908D01*
X48560Y52329D01*
X49418Y51687D01*
X50228Y50985D01*
X50985Y50228D01*
X51687Y49418D01*
X52329Y48560D01*
X52908Y47659D01*
X53422Y46719D01*
X53867Y45744D01*
X54241Y44740D01*
X54543Y43712D01*
X54771Y42665D01*
X54924Y41604D01*
X55000Y40536D01*
X55000Y39464D01*
X975000Y959464D02*
X974924Y958396D01*
X974771Y957335D01*
X974543Y956288D01*
X974241Y955260D01*
X973867Y954256D01*
X973422Y953281D01*
X972908Y952341D01*
X972329Y951440D01*
X971687Y950582D01*
X970985Y949772D01*
X970228Y949015D01*
X969418Y948313D01*
X968560Y947671D01*
X967659Y947092D01*
X966719Y946578D01*
X965744Y946133D01*
X964740Y945759D01*
X963712Y945457D01*
X962665Y945229D01*
X961604Y945076D01*
X960536Y945000D01*
X959464Y945000D01*
X958396Y945076D01*
X957335Y945229D01*
X956288Y945457D01*
X955260Y945759D01*
X954256Y946133D01*
X953281Y946578D01*
X952341Y947092D01*
X951440Y947671D01*
X950582Y948313D01*
X949772Y949015D01*
X949015Y949772D01*
X948313Y950582D01*
X947671Y951440D01*
X947092Y952341D01*
X946578Y953281D01*
X946133Y954256D01*
X945759Y955260D01*
X945457Y956288D01*
X945229Y957335D01*
X945076Y958396D01*
X945000Y959464D01*
X945000Y960536D01*
X945076Y961604D01*
X945229Y962665D01*
X945457Y963712D01*
X945759Y964740D01*
X946133Y965744D01*
X946578Y966719D01*
X947092Y967659D01*
X947671Y968560D01*
X948313Y969418D01*
X949015Y970228D01*
X949772Y970985D01*
X950582Y971687D01*
X951440Y972329D01*
X952341Y972908D01*
X953281Y973422D01*
X954256Y973867D01*
X955260Y974241D01*
X956288Y974543D01*
X957335Y974771D01*
X958396Y974924D01*
X959464Y975000D01*
X960536Y975000D01*
X961604Y974924D01*
X962665Y974771D01*
X963712Y974543D01*
X964740Y974241D01*
X965744Y973867D01*
X966719Y973422D01*
X967659Y972908D01*
X968560Y972329D01*
X969418Y971687D01*
X970228Y970985D01*
X970985Y970228D01*
X971687Y969418D01*
X972329Y968560D01*
X972908Y967659D01*
X973422Y966719D01*
X973867Y965744D01*
X974241Y964740D01*
X974543Y963712D01*
X974771Y962665D01*
X974924Y961604D01*
X975000Y960536D01*
X975000Y959464D01*
X-47500Y964676D02*
X-47569Y963631D01*
X-47705Y962592D01*
X-47910Y961565D01*
X-48181Y960553D01*
X-48517Y959561D01*
X-48918Y958593D01*
X-49382Y957654D01*
X-49906Y956746D01*
X-50488Y955875D01*
X-51125Y955044D01*
X-51816Y954257D01*
X-52557Y953516D01*
X-53344Y952825D01*
X-54175Y952188D01*
X-55046Y951606D01*
X-55954Y951082D01*
X-56893Y950618D01*
X-57861Y950217D01*
X-58853Y949881D01*
X-59865Y949610D01*
X-60892Y949405D01*
X-61931Y949269D01*
X-62976Y949200D01*
X-64024Y949200D01*
X-65069Y949269D01*
X-66108Y949405D01*
X-67135Y949610D01*
X-68147Y949881D01*
X-69139Y950217D01*
X-70107Y950618D01*
X-71046Y951082D01*
X-71954Y951606D01*
X-72825Y952188D01*
X-73656Y952825D01*
X-74443Y953516D01*
X-75184Y954257D01*
X-75875Y955044D01*
X-76513Y955875D01*
X-77095Y956746D01*
X-77618Y957654D01*
X-78082Y958593D01*
X-78483Y959561D01*
X-78819Y960553D01*
X-79090Y961565D01*
X-79295Y962592D01*
X-79432Y963631D01*
X-79500Y964676D01*
X-79500Y965724D01*
X-79432Y966769D01*
X-79295Y967808D01*
X-79090Y968835D01*
X-78819Y969847D01*
X-78483Y970839D01*
X-78082Y971807D01*
X-77618Y972746D01*
X-77095Y973654D01*
X-76513Y974525D01*
X-75875Y975356D01*
X-75184Y976143D01*
X-74443Y976884D01*
X-73656Y977575D01*
X-72825Y978213D01*
X-71954Y978795D01*
X-71046Y979318D01*
X-70107Y979782D01*
X-69139Y980183D01*
X-68147Y980519D01*
X-67135Y980790D01*
X-66108Y980995D01*
X-65069Y981132D01*
X-64024Y981200D01*
X-62976Y981200D01*
X-61931Y981132D01*
X-60892Y980995D01*
X-59865Y980790D01*
X-58853Y980519D01*
X-57861Y980183D01*
X-56893Y979782D01*
X-55954Y979318D01*
X-55046Y978795D01*
X-54175Y978213D01*
X-53344Y977575D01*
X-52557Y976884D01*
X-51816Y976143D01*
X-51125Y975356D01*
X-50488Y974525D01*
X-49906Y973654D01*
X-49382Y972746D01*
X-48918Y971807D01*
X-48517Y970839D01*
X-48181Y969847D01*
X-47910Y968835D01*
X-47705Y967808D01*
X-47569Y966769D01*
X-47500Y965724D01*
X-47500Y964676D01*
X-60200Y482076D02*
X-60269Y481031D01*
X-60405Y479992D01*
X-60610Y478965D01*
X-60881Y477953D01*
X-61217Y476961D01*
X-61618Y475993D01*
X-62082Y475054D01*
X-62606Y474146D01*
X-63188Y473275D01*
X-63825Y472444D01*
X-64516Y471657D01*
X-65257Y470916D01*
X-66044Y470225D01*
X-66875Y469588D01*
X-67746Y469006D01*
X-68654Y468482D01*
X-69593Y468018D01*
X-70561Y467617D01*
X-71553Y467281D01*
X-72565Y467010D01*
X-73592Y466805D01*
X-74631Y466669D01*
X-75676Y466600D01*
X-76724Y466600D01*
X-77769Y466669D01*
X-78808Y466805D01*
X-79835Y467010D01*
X-80847Y467281D01*
X-81839Y467617D01*
X-82807Y468018D01*
X-83746Y468482D01*
X-84654Y469006D01*
X-85525Y469588D01*
X-86356Y470225D01*
X-87143Y470916D01*
X-87884Y471657D01*
X-88575Y472444D01*
X-89213Y473275D01*
X-89795Y474146D01*
X-90318Y475054D01*
X-90782Y475993D01*
X-91183Y476961D01*
X-91519Y477953D01*
X-91790Y478965D01*
X-91995Y479992D01*
X-92132Y481031D01*
X-92200Y482076D01*
X-92200Y483124D01*
X-92132Y484169D01*
X-91995Y485208D01*
X-91790Y486235D01*
X-91519Y487247D01*
X-91183Y488239D01*
X-90782Y489207D01*
X-90318Y490146D01*
X-89795Y491054D01*
X-89213Y491925D01*
X-88575Y492756D01*
X-87884Y493543D01*
X-87143Y494284D01*
X-86356Y494975D01*
X-85525Y495613D01*
X-84654Y496195D01*
X-83746Y496718D01*
X-82807Y497182D01*
X-81839Y497583D01*
X-80847Y497919D01*
X-79835Y498190D01*
X-78808Y498395D01*
X-77769Y498532D01*
X-76724Y498600D01*
X-75676Y498600D01*
X-74631Y498532D01*
X-73592Y498395D01*
X-72565Y498190D01*
X-71553Y497919D01*
X-70561Y497583D01*
X-69593Y497182D01*
X-68654Y496718D01*
X-67746Y496195D01*
X-66875Y495613D01*
X-66044Y494975D01*
X-65257Y494284D01*
X-64516Y493543D01*
X-63825Y492756D01*
X-63188Y491925D01*
X-62606Y491054D01*
X-62082Y490146D01*
X-61618Y489207D01*
X-61217Y488239D01*
X-60881Y487247D01*
X-60610Y486235D01*
X-60405Y485208D01*
X-60269Y484169D01*
X-60200Y483124D01*
X-60200Y482076D01*
X460500Y812276D02*
X460432Y811231D01*
X460295Y810192D01*
X460090Y809165D01*
X459819Y808153D01*
X459483Y807161D01*
X459082Y806193D01*
X458618Y805254D01*
X458095Y804346D01*
X457513Y803475D01*
X456875Y802644D01*
X456184Y801857D01*
X455443Y801116D01*
X454656Y800425D01*
X453825Y799788D01*
X452954Y799206D01*
X452046Y798682D01*
X451107Y798218D01*
X450139Y797817D01*
X449147Y797481D01*
X448135Y797210D01*
X447108Y797005D01*
X446069Y796869D01*
X445024Y796800D01*
X443976Y796800D01*
X442931Y796869D01*
X441892Y797005D01*
X440865Y797210D01*
X439853Y797481D01*
X438861Y797817D01*
X437893Y798218D01*
X436954Y798682D01*
X436046Y799206D01*
X435175Y799788D01*
X434344Y800425D01*
X433557Y801116D01*
X432816Y801857D01*
X432125Y802644D01*
X431488Y803475D01*
X430906Y804346D01*
X430382Y805254D01*
X429918Y806193D01*
X429517Y807161D01*
X429181Y808153D01*
X428910Y809165D01*
X428705Y810192D01*
X428569Y811231D01*
X428500Y812276D01*
X428500Y813324D01*
X428569Y814369D01*
X428705Y815408D01*
X428910Y816435D01*
X429181Y817447D01*
X429517Y818439D01*
X429918Y819407D01*
X430382Y820346D01*
X430906Y821254D01*
X431488Y822125D01*
X432125Y822956D01*
X432816Y823743D01*
X433557Y824484D01*
X434344Y825175D01*
X435175Y825813D01*
X436046Y826395D01*
X436954Y826918D01*
X437893Y827382D01*
X438861Y827783D01*
X439853Y828119D01*
X440865Y828390D01*
X441892Y828595D01*
X442931Y828732D01*
X443976Y828800D01*
X445024Y828800D01*
X446069Y828732D01*
X447108Y828595D01*
X448135Y828390D01*
X449147Y828119D01*
X450139Y827783D01*
X451107Y827382D01*
X452046Y826918D01*
X452954Y826395D01*
X453825Y825813D01*
X454656Y825175D01*
X455443Y824484D01*
X456184Y823743D01*
X456875Y822956D01*
X457513Y822125D01*
X458095Y821254D01*
X458618Y820346D01*
X459082Y819407D01*
X459483Y818439D01*
X459819Y817447D01*
X460090Y816435D01*
X460295Y815408D01*
X460432Y814369D01*
X460500Y813324D01*
X460500Y812276D01*
X460500Y532876D02*
X460432Y531831D01*
X460295Y530792D01*
X460090Y529765D01*
X459819Y528753D01*
X459483Y527761D01*
X459082Y526793D01*
X458618Y525854D01*
X458095Y524946D01*
X457513Y524075D01*
X456875Y523244D01*
X456184Y522457D01*
X455443Y521716D01*
X454656Y521025D01*
X453825Y520388D01*
X452954Y519806D01*
X452046Y519282D01*
X451107Y518818D01*
X450139Y518417D01*
X449147Y518081D01*
X448135Y517810D01*
X447108Y517605D01*
X446069Y517469D01*
X445024Y517400D01*
X443976Y517400D01*
X442931Y517469D01*
X441892Y517605D01*
X440865Y517810D01*
X439853Y518081D01*
X438861Y518417D01*
X437893Y518818D01*
X436954Y519282D01*
X436046Y519806D01*
X435175Y520388D01*
X434344Y521025D01*
X433557Y521716D01*
X432816Y522457D01*
X432125Y523244D01*
X431488Y524075D01*
X430906Y524946D01*
X430382Y525854D01*
X429918Y526793D01*
X429517Y527761D01*
X429181Y528753D01*
X428910Y529765D01*
X428705Y530792D01*
X428569Y531831D01*
X428500Y532876D01*
X428500Y533924D01*
X428569Y534969D01*
X428705Y536008D01*
X428910Y537035D01*
X429181Y538047D01*
X429517Y539039D01*
X429918Y540007D01*
X430382Y540946D01*
X430906Y541854D01*
X431488Y542725D01*
X432125Y543556D01*
X432816Y544343D01*
X433557Y545084D01*
X434344Y545775D01*
X435175Y546413D01*
X436046Y546995D01*
X436954Y547518D01*
X437893Y547982D01*
X438861Y548383D01*
X439853Y548719D01*
X440865Y548990D01*
X441892Y549195D01*
X442931Y549332D01*
X443976Y549400D01*
X445024Y549400D01*
X446069Y549332D01*
X447108Y549195D01*
X448135Y548990D01*
X449147Y548719D01*
X450139Y548383D01*
X451107Y547982D01*
X452046Y547518D01*
X452954Y546995D01*
X453825Y546413D01*
X454656Y545775D01*
X455443Y545084D01*
X456184Y544343D01*
X456875Y543556D01*
X457513Y542725D01*
X458095Y541854D01*
X458618Y540946D01*
X459082Y540007D01*
X459483Y539039D01*
X459819Y538047D01*
X460090Y537035D01*
X460295Y536008D01*
X460432Y534969D01*
X460500Y533924D01*
X460500Y532876D01*
X701800Y964676D02*
X701732Y963631D01*
X701595Y962592D01*
X701390Y961565D01*
X701119Y960553D01*
X700783Y959561D01*
X700382Y958593D01*
X699918Y957654D01*
X699395Y956746D01*
X698813Y955875D01*
X698175Y955044D01*
X697484Y954257D01*
X696743Y953516D01*
X695956Y952825D01*
X695125Y952188D01*
X694254Y951606D01*
X693346Y951082D01*
X692407Y950618D01*
X691439Y950217D01*
X690447Y949881D01*
X689435Y949610D01*
X688408Y949405D01*
X687369Y949269D01*
X686324Y949200D01*
X685276Y949200D01*
X684231Y949269D01*
X683192Y949405D01*
X682165Y949610D01*
X681153Y949881D01*
X680161Y950217D01*
X679193Y950618D01*
X678254Y951082D01*
X677346Y951606D01*
X676475Y952188D01*
X675644Y952825D01*
X674857Y953516D01*
X674116Y954257D01*
X673425Y955044D01*
X672788Y955875D01*
X672206Y956746D01*
X671682Y957654D01*
X671218Y958593D01*
X670817Y959561D01*
X670481Y960553D01*
X670210Y961565D01*
X670005Y962592D01*
X669869Y963631D01*
X669800Y964676D01*
X669800Y965724D01*
X669869Y966769D01*
X670005Y967808D01*
X670210Y968835D01*
X670481Y969847D01*
X670817Y970839D01*
X671218Y971807D01*
X671682Y972746D01*
X672206Y973654D01*
X672788Y974525D01*
X673425Y975356D01*
X674116Y976143D01*
X674857Y976884D01*
X675644Y977575D01*
X676475Y978213D01*
X677346Y978795D01*
X678254Y979318D01*
X679193Y979782D01*
X680161Y980183D01*
X681153Y980519D01*
X682165Y980790D01*
X683192Y980995D01*
X684231Y981132D01*
X685276Y981200D01*
X686324Y981200D01*
X687369Y981132D01*
X688408Y980995D01*
X689435Y980790D01*
X690447Y980519D01*
X691439Y980183D01*
X692407Y979782D01*
X693346Y979318D01*
X694254Y978795D01*
X695125Y978213D01*
X695956Y977575D01*
X696743Y976884D01*
X697484Y976143D01*
X698175Y975356D01*
X698813Y974525D01*
X699395Y973654D01*
X699918Y972746D01*
X700382Y971807D01*
X700783Y970839D01*
X701119Y969847D01*
X701390Y968835D01*
X701595Y967808D01*
X701732Y966769D01*
X701800Y965724D01*
X701800Y964676D01*
X765300Y482076D02*
X765232Y481031D01*
X765095Y479992D01*
X764890Y478965D01*
X764619Y477953D01*
X764283Y476961D01*
X763882Y475993D01*
X763418Y475054D01*
X762895Y474146D01*
X762313Y473275D01*
X761675Y472444D01*
X760984Y471657D01*
X760243Y470916D01*
X759456Y470225D01*
X758625Y469588D01*
X757754Y469006D01*
X756846Y468482D01*
X755907Y468018D01*
X754939Y467617D01*
X753947Y467281D01*
X752935Y467010D01*
X751908Y466805D01*
X750869Y466669D01*
X749824Y466600D01*
X748776Y466600D01*
X747731Y466669D01*
X746692Y466805D01*
X745665Y467010D01*
X744653Y467281D01*
X743661Y467617D01*
X742693Y468018D01*
X741754Y468482D01*
X740846Y469006D01*
X739975Y469588D01*
X739144Y470225D01*
X738357Y470916D01*
X737616Y471657D01*
X736925Y472444D01*
X736288Y473275D01*
X735706Y474146D01*
X735182Y475054D01*
X734718Y475993D01*
X734317Y476961D01*
X733981Y477953D01*
X733710Y478965D01*
X733505Y479992D01*
X733369Y481031D01*
X733300Y482076D01*
X733300Y483124D01*
X733369Y484169D01*
X733505Y485208D01*
X733710Y486235D01*
X733981Y487247D01*
X734317Y488239D01*
X734718Y489207D01*
X735182Y490146D01*
X735706Y491054D01*
X736288Y491925D01*
X736925Y492756D01*
X737616Y493543D01*
X738357Y494284D01*
X739144Y494975D01*
X739975Y495613D01*
X740846Y496195D01*
X741754Y496718D01*
X742693Y497182D01*
X743661Y497583D01*
X744653Y497919D01*
X745665Y498190D01*
X746692Y498395D01*
X747731Y498532D01*
X748776Y498600D01*
X749824Y498600D01*
X750869Y498532D01*
X751908Y498395D01*
X752935Y498190D01*
X753947Y497919D01*
X754939Y497583D01*
X755907Y497182D01*
X756846Y496718D01*
X757754Y496195D01*
X758625Y495613D01*
X759456Y494975D01*
X760243Y494284D01*
X760984Y493543D01*
X761675Y492756D01*
X762313Y491925D01*
X762895Y491054D01*
X763418Y490146D01*
X763882Y489207D01*
X764283Y488239D01*
X764619Y487247D01*
X764890Y486235D01*
X765095Y485208D01*
X765232Y484169D01*
X765300Y483124D01*
X765300Y482076D01*
M02*
