M48
;GenerationSoftware,Autodesk,EAGLE,9.6.2*%
;CreationDate,2020-12-05T20:42:00Z*%
FMAT,2
ICI,OFF
METRIC,TZ,000.000
T8C0.350
T7C0.800
T6C0.813
T5C0.900
T4C1.016
T3C1.600
T2C3.000
T1C3.200
%
G90
M71
T1
X-6350Y96520
X-7620Y48260
X44450Y81280
X44450Y53340
X68580Y96520
X74930Y48260
T2
X96000Y4000
X4000Y4000
X96000Y96000
T3
X83820Y10160
X39370Y10160
X29210Y10160
X34290Y10160
X55880Y10160
X45720Y10160
X50800Y10160
X72390Y10160
X62230Y10160
X67310Y10160
X88900Y10160
X78740Y10160
X95000Y43040
X17780Y10160
X12700Y10160
X22860Y10160
X95000Y78460
X95000Y73380
X95000Y83540
X95000Y88620
X95000Y54960
X95000Y49880
X95000Y60040
X95000Y65120
X5000Y16690
X5000Y21770
X95000Y37960
X5000Y45970
X5000Y51050
X5000Y40890
X5000Y35810
X5000Y81620
X5000Y86700
X5000Y76540
X5000Y71460
X5000Y66380
X5000Y61300
T4
X26670Y96520
X31750Y96520
X34290Y96520
X36830Y96520
X39370Y96520
X41910Y96520
X24130Y96520
X4826Y96520
X7366Y96520
X9906Y96520
X12446Y96520
X14986Y96520
X17526Y96520
X20066Y96520
X2286Y96520
X74930Y76200
X72390Y76200
X74930Y78740
X72390Y78740
X74930Y81280
X72390Y81280
X74930Y83820
X72390Y83820
X74930Y86360
X72390Y86360
X74930Y88900
X72390Y88900
X74930Y91440
X72390Y91440
X74930Y93980
X72390Y93980
X74930Y55880
X72390Y55880
X74930Y58420
X72390Y58420
X74930Y60960
X72390Y60960
X74930Y63500
X72390Y63500
X74930Y66040
X72390Y66040
X74930Y68580
X72390Y68580
X74930Y71120
X72390Y71120
X74930Y73660
X72390Y73660
X72390Y53340
X29210Y96520
X72390Y96520
X74930Y96520
X11430Y48260
X13970Y48260
X16510Y48260
X19050Y48260
X21590Y48260
X24130Y48260
X59690Y48260
X54610Y48260
X57150Y48260
X16510Y36830
X16510Y34290
X16510Y31750
X62230Y48260
X64770Y48260
X67310Y48260
X69850Y48260
X52070Y48260
X49530Y96520
X52070Y96520
X54610Y96520
X57150Y96520
X59690Y96520
X74930Y53340
X62230Y96520
X64770Y96520
X46990Y96520
X31750Y48260
X34290Y48260
X33020Y41910
X33020Y39370
X36068Y41910
X36068Y39370
X36830Y48260
X39370Y48260
X41910Y48260
X44450Y48260
X46990Y48260
X29210Y48260
X54610Y41910
X54610Y39370
X57658Y41910
X57658Y39370
T5
X62230Y90170
X62230Y21590
X22860Y21590
X12700Y13970
X12700Y21590
X39370Y13970
X22860Y13970
X39370Y21590
X29210Y13970
X29210Y21590
X55880Y13970
X55880Y21590
X45720Y13970
X62230Y82550
X64770Y90170
X64770Y82550
X45720Y21590
X72390Y13970
X72390Y21590
X62230Y13970
X78740Y21590
X78740Y13970
X88900Y21590
X88900Y13970
T6
X22860Y31750
X27940Y31750
X27940Y38100
X22860Y38100
T7
X30680Y71120
X30680Y73660
X30680Y76200
X30680Y68580
X55680Y78740
X55680Y76200
X55680Y73660
X55680Y71120
X55680Y68580
X55680Y66040
T8
X62230Y68580
X91440Y54610
X55880Y59690
X91440Y39370
X62230Y66040
X91440Y49530
X48260Y59690
X58420Y92710
X91440Y64770
X62230Y73660
X91440Y59690
X62230Y71120
M30